<svg width="86" height="85" viewBox="0 0 86 85" fill="none" xmlns="http://www.w3.org/2000/svg">
<path d="M25.7646 63.7742L45.2573 44.2815L48.704 47.7281L29.2113 67.2208L25.7646 63.7742Z" fill="#6EB9FF"/>
<path d="M49.4374 79.1249C49.1287 79.1257 48.8227 79.0678 48.5356 78.9543C48.1362 78.7951 47.7861 78.5331 47.5207 78.1949C47.2553 77.8567 47.084 77.4544 47.0243 77.0287L44.5868 59.9662L49.4618 59.2837L51.2899 72.1293L59.1874 65.7674V47.4374C59.1856 47.1166 59.2471 46.7986 59.3684 46.5016C59.4897 46.2047 59.6684 45.9345 59.8943 45.7068L69.8149 35.7862C71.8591 33.7558 73.4804 31.3403 74.5849 28.6793C75.6895 26.0184 76.2554 23.1648 76.2499 20.2837V15.7499H71.7162C68.8351 15.7444 65.9815 16.3103 63.3205 17.4149C60.6595 18.5195 58.244 20.1407 56.2137 22.1849L46.2931 32.1055C46.0653 32.3314 45.7952 32.5102 45.4982 32.6315C45.2012 32.7528 44.8832 32.8143 44.5624 32.8124H26.2324L19.8706 40.7587L32.7162 42.5868L32.0337 47.4618L14.9712 45.0243C14.5455 44.9646 14.1431 44.7933 13.8049 44.5279C13.4667 44.2625 13.2047 43.9124 13.0456 43.513C12.8844 43.1109 12.8333 42.6731 12.8976 42.2447C12.9618 41.8162 13.1391 41.4127 13.4112 41.0755L23.1612 28.888C23.3857 28.5963 23.6734 28.3592 24.0027 28.1946C24.332 28.0299 24.6943 27.942 25.0624 27.9374H43.5631L52.7524 18.7237C55.2366 16.2255 58.1921 14.2453 61.4474 12.898C64.7027 11.5507 68.1931 10.863 71.7162 10.8749H76.2499C77.5429 10.8749 78.7828 11.3885 79.6971 12.3028C80.6113 13.217 81.1249 14.457 81.1249 15.7499V20.2837C81.1368 23.8067 80.4491 27.2971 79.1018 30.5524C77.7545 33.8077 75.7744 36.7632 73.2762 39.2474L64.0624 48.4368V66.9374C64.0607 67.3035 63.9766 67.6646 63.8162 67.9937C63.6559 68.3229 63.4235 68.6117 63.1362 68.8387L50.9487 78.5887C50.5198 78.9327 49.9872 79.1217 49.4374 79.1249Z" fill="#6EB9FF"/>
<path d="M17.7646 56.7742L37.2573 37.2815L40.704 40.7281L21.2113 60.2208L17.7646 56.7742Z" fill="black"/>
<path d="M41.4374 73.1249C41.1287 73.1257 40.8227 73.0678 40.5356 72.9543C40.1362 72.7951 39.7861 72.5331 39.5207 72.1949C39.2553 71.8567 39.084 71.4544 39.0243 71.0287L36.5868 53.9662L41.4618 53.2837L43.2899 66.1293L51.1874 59.7674V41.4374C51.1856 41.1166 51.2471 40.7986 51.3684 40.5016C51.4897 40.2047 51.6684 39.9345 51.8943 39.7068L61.8149 29.7862C63.8591 27.7558 65.4804 25.3403 66.5849 22.6793C67.6895 20.0184 68.2554 17.1648 68.2499 14.2837V9.74991H63.7162C60.8351 9.74443 57.9815 10.3103 55.3205 11.4149C52.6595 12.5195 50.244 14.1407 48.2137 16.1849L38.2931 26.1055C38.0653 26.3314 37.7952 26.5102 37.4982 26.6315C37.2012 26.7528 36.8832 26.8143 36.5624 26.8124H18.2324L11.8706 34.7587L24.7162 36.5868L24.0337 41.4618L6.97118 39.0243C6.54545 38.9646 6.14309 38.7933 5.80491 38.5279C5.46672 38.2625 5.20475 37.9124 5.04555 37.513C4.88439 37.1109 4.83331 36.6731 4.89757 36.2447C4.96184 35.8162 5.13912 35.4127 5.41118 35.0755L15.1612 22.888C15.3857 22.5963 15.6734 22.3592 16.0027 22.1946C16.332 22.0299 16.6943 21.942 17.0624 21.9374H35.5631L44.7524 12.7237C47.2366 10.2255 50.1921 8.24532 53.4474 6.89801C56.7027 5.5507 60.1931 4.86304 63.7162 4.87491H68.2499C69.5429 4.87491 70.7828 5.38852 71.6971 6.30276C72.6113 7.217 73.1249 8.45698 73.1249 9.74991V14.2837C73.1368 17.8067 72.4491 21.2971 71.1018 24.5524C69.7545 27.8077 67.7744 30.7632 65.2762 33.2474L56.0624 42.4368V60.9374C56.0607 61.3035 55.9766 61.6646 55.8162 61.9937C55.6559 62.3229 55.4235 62.6117 55.1362 62.8387L42.9487 72.5887C42.5198 72.9327 41.9872 73.1217 41.4374 73.1249Z" fill="black"/>
</svg>
