<svg width="19" height="19" viewBox="0 0 19 19" fill="none" xmlns="http://www.w3.org/2000/svg">
<path d="M14.3 7.37498C14.1 7.17498 14 6.93732 14 6.66198C14 6.38732 14.1 6.14998 14.3 5.94998L15.2 5.04998H11.05C10.7667 5.04998 10.5293 4.95398 10.338 4.76198C10.146 4.57065 10.05 4.33332 10.05 4.04999C10.05 3.76665 10.146 3.52932 10.338 3.33798C10.5293 3.14598 10.7667 3.04999 11.05 3.04999H15.2L14.3 2.14999C14.1 1.94999 14.0043 1.71665 14.013 1.44999C14.021 1.18332 14.1167 0.949985 14.3 0.749985C14.5 0.549985 14.7377 0.445652 15.013 0.436985C15.2877 0.428985 15.525 0.524985 15.725 0.724985L18.35 3.34998C18.45 3.44998 18.5207 3.55832 18.562 3.67499C18.604 3.79165 18.625 3.91665 18.625 4.04999C18.625 4.18332 18.604 4.30832 18.562 4.42499C18.5207 4.54165 18.45 4.64998 18.35 4.74998L15.7 7.39998C15.5 7.59998 15.2667 7.69598 15 7.68798C14.7333 7.67932 14.5 7.57498 14.3 7.37498ZM16.95 19C14.8 19 12.7043 18.5207 10.663 17.562C8.621 16.604 6.81267 15.3373 5.238 13.762C3.66267 12.1873 2.396 10.379 1.438 8.33698C0.479334 6.29565 0 4.19999 0 2.04999C0 1.74999 0.0999999 1.49998 0.3 1.29998C0.5 1.09998 0.75 0.999985 1.05 0.999985H5.1C5.33333 0.999985 5.54167 1.07498 5.725 1.22498C5.90833 1.37498 6.01667 1.56665 6.05 1.79998L6.7 5.29998C6.73333 5.53332 6.72933 5.74565 6.688 5.93698C6.646 6.12898 6.55 6.29998 6.4 6.44998L4 8.89998C4.7 10.1 5.575 11.225 6.625 12.275C7.675 13.325 8.83333 14.2333 10.1 15L12.45 12.65C12.6 12.5 12.796 12.3873 13.038 12.312C13.2793 12.2373 13.5167 12.2167 13.75 12.25L17.2 12.95C17.4333 13 17.625 13.1123 17.775 13.287C17.925 13.4623 18 13.6667 18 13.9V17.95C18 18.25 17.9 18.5 17.7 18.7C17.5 18.9 17.25 19 16.95 19Z" fill="white"/>
</svg>
