<svg width="60" height="60" viewBox="0 0 60 60" fill="none" xmlns="http://www.w3.org/2000/svg">
<path fill-rule="evenodd" clip-rule="evenodd" d="M46.0075 14.0825C43.9284 11.9897 41.4547 10.3303 38.7297 9.20038C36.0046 8.07047 33.0825 7.49251 30.1325 7.50001C17.7625 7.50001 7.6925 17.5675 7.6875 29.9425C7.6875 33.8975 8.72 37.7575 10.6825 41.1625L7.5 52.79L19.3975 49.6675C22.6885 51.459 26.3755 52.3984 30.1225 52.4H30.1325C42.5 52.4 52.57 42.3325 52.575 29.9575C52.5835 27.0087 52.0075 24.0875 50.8802 21.3627C49.7529 18.6378 48.0968 16.1634 46.0075 14.0825ZM30.1325 48.6125H30.125C26.7838 48.6129 23.5041 47.7139 20.63 46.01L19.95 45.605L12.89 47.4575L14.7725 40.575L14.33 39.87C12.462 36.8961 11.4731 33.4545 11.4775 29.9425C11.4825 19.6575 19.85 11.29 30.14 11.29C32.5906 11.2846 35.018 11.7652 37.2816 12.7041C39.5453 13.6431 41.6002 15.0216 43.3275 16.76C45.064 18.4901 46.4405 20.5472 47.3772 22.8125C48.314 25.0778 48.7924 27.5062 48.785 29.9575C48.78 40.2425 40.4125 48.6125 30.1325 48.6125ZM40.365 34.64C39.8025 34.3575 37.0475 33.0025 36.5325 32.815C36.02 32.6275 35.6475 32.535 35.2725 33.095C34.8975 33.655 33.8225 34.9175 33.495 35.2925C33.1675 35.6675 32.84 35.7125 32.28 35.4325C31.72 35.1525 29.9125 34.56 27.77 32.65C26.1025 31.1625 24.9775 29.3275 24.65 28.765C24.3225 28.2025 24.615 27.9 24.8975 27.62C25.15 27.37 25.4575 26.965 25.7375 26.6375C26.0175 26.31 26.11 26.0775 26.2975 25.7025C26.485 25.3275 26.3925 25 26.25 24.72C26.11 24.4375 24.9875 21.6775 24.52 20.555C24.0675 19.4675 23.605 19.6125 23.26 19.5975C22.9027 19.5829 22.5451 19.5762 22.1875 19.5775C21.9031 19.5848 21.6233 19.6507 21.3657 19.7711C21.108 19.8916 20.8779 20.064 20.69 20.2775C20.175 20.84 18.7275 22.195 18.7275 24.955C18.7275 27.715 20.7375 30.3825 21.0175 30.7575C21.2975 31.1325 24.9725 36.795 30.5975 39.225C31.9375 39.8025 32.9825 40.1475 33.795 40.4075C35.1375 40.835 36.36 40.7725 37.3275 40.63C38.405 40.47 40.645 39.275 41.1125 37.965C41.58 36.655 41.58 35.5325 41.44 35.2975C41.3 35.0625 40.9225 34.92 40.365 34.64Z" fill="#FF5602"/>
</svg>
