<svg width="29" height="29" viewBox="0 0 29 29" fill="none" xmlns="http://www.w3.org/2000/svg">
<path d="M14.5003 10.7248C12.4215 10.7248 10.7252 12.4212 10.7252 14.4999C10.7252 16.5786 12.4215 18.275 14.5003 18.275C16.579 18.275 18.2754 16.5786 18.2754 14.4999C18.2754 12.4212 16.579 10.7248 14.5003 10.7248ZM25.8227 14.4999C25.8227 12.9366 25.8369 11.3875 25.7491 9.82706C25.6613 8.01456 25.2478 6.40597 23.9224 5.08058C22.5942 3.75236 20.9884 3.34171 19.1759 3.25392C17.6127 3.16613 16.0635 3.18029 14.5031 3.18029C12.9398 3.18029 11.3907 3.16613 9.83024 3.25392C8.01774 3.34171 6.40914 3.75519 5.08375 5.08058C3.75553 6.4088 3.34489 8.01456 3.25709 9.82706C3.1693 11.3903 3.18346 12.9395 3.18346 14.4999C3.18346 16.0604 3.1693 17.6123 3.25709 19.1728C3.34489 20.9853 3.75836 22.5939 5.08375 23.9193C6.41198 25.2475 8.01774 25.6581 9.83024 25.7459C11.3935 25.8337 12.9426 25.8195 14.5031 25.8195C16.0664 25.8195 17.6155 25.8337 19.1759 25.7459C20.9884 25.6581 22.597 25.2446 23.9224 23.9193C25.2506 22.591 25.6613 20.9853 25.7491 19.1728C25.8397 17.6123 25.8227 16.0632 25.8227 14.4999ZM14.5003 20.3084C11.2859 20.3084 8.69176 17.7143 8.69176 14.4999C8.69176 11.2856 11.2859 8.69142 14.5003 8.69142C17.7146 8.69142 20.3088 11.2856 20.3088 14.4999C20.3088 17.7143 17.7146 20.3084 14.5003 20.3084ZM20.5466 9.81007C19.7962 9.81007 19.1901 9.20402 19.1901 8.45353C19.1901 7.70304 19.7962 7.09698 20.5466 7.09698C21.2971 7.09698 21.9032 7.70304 21.9032 8.45353C21.9034 8.63173 21.8685 8.80823 21.8004 8.97292C21.7323 9.1376 21.6324 9.28724 21.5064 9.41325C21.3804 9.53926 21.2307 9.63917 21.066 9.70727C20.9014 9.77536 20.7248 9.81029 20.5466 9.81007Z" fill="black"/>
</svg>
