<svg width="150" height="40" viewBox="0 0 150 40" fill="none" xmlns="http://www.w3.org/2000/svg">
<rect width="150" height="40" rx="2" fill="#35447A"/>
<path d="M18.025 8.15385C16.7721 9.53846 16.0305 11 16.0305 12.1538C16.0305 12.3846 15.9282 12.5641 15.8004 12.5641C15.6725 12.5641 15.5191 12.9744 15.4679 13.4872C15.3912 14.1795 15.4679 14.4872 15.8259 14.6923C16.0816 14.8718 16.2862 15.1795 16.2862 15.3846C16.2862 16.1026 17.488 18.3333 18.204 18.9487C21.0679 21.3846 24.7501 20 26.0031 16.0256C26.1821 15.4615 26.4889 14.8974 26.6679 14.7949C27.1282 14.5128 27.1282 13.3077 26.6424 12.4103C26.4378 12 26.2588 11.4359 26.2588 11.1538C26.2588 10.4103 25.3382 9 24.0597 7.74359C22.9602 6.69231 22.8835 6.66667 21.1702 6.66667H19.4058L18.025 8.15385ZM19.8661 8.35898C20.0962 8.94872 20.2241 9 21.3236 8.92308C22.372 8.84616 22.551 8.76923 22.6789 8.20513C22.8323 7.61539 22.8579 7.58975 23.1136 8.05128C23.3182 8.41026 23.267 8.71795 22.9602 9.25641C22.6022 9.92308 22.4232 10 21.2214 10C19.994 10 19.8405 9.92308 19.4826 9.25641C19.278 8.82051 19.1757 8.30769 19.2524 8.10257C19.457 7.53846 19.5848 7.58975 19.8661 8.35898ZM25.3638 14.0256C24.699 14.3077 23.3437 14.4872 21.4004 14.5385C18.8433 14.641 18.3063 14.5641 17.309 14.1282L16.1584 13.5897L21.2725 13.6154C26.2588 13.6154 26.3611 13.6154 25.3638 14.0256ZM25.236 15.6667C25.236 15.8718 24.878 16.6154 24.4688 17.282C23.5483 18.6923 21.8862 19.6154 20.7099 19.3333C19.2524 18.9744 17.7693 17.4872 17.3346 15.9487L17.13 15.2564H21.1702C24.6734 15.2564 25.236 15.3077 25.236 15.6667Z" fill="white"/>
<path d="M7.97561 14.8718C7.8989 15 8.23132 15.6667 8.71716 16.3333C9.40757 17.3333 9.53542 17.641 9.30529 18C9.10072 18.3333 9.10072 18.6667 9.33086 19.3333C9.50985 19.8205 9.58656 20.4872 9.50985 20.8205C9.40757 21.2308 9.66328 21.9231 10.3793 23.1282C11.2998 24.718 11.3509 24.8718 10.993 25.3846C10.6605 25.8718 10.635 26.1026 10.9162 26.9487C11.2231 27.8974 11.2231 28.0256 10.7372 28.4872C10.3025 28.9231 10.1235 28.9744 9.66328 28.7436C8.99844 28.3846 8.10346 28.7692 8.10346 29.4359C8.10346 30.1282 10.3537 33.3333 10.8651 33.3333C11.0952 33.3333 11.9646 32.5641 12.8085 31.641C13.8824 30.4359 14.3939 30.0513 14.5729 30.2308C15.1098 30.7692 15.8514 30.4872 18.0249 28.9231C20.3263 27.2821 20.8888 26.7692 20.8888 26.2564C20.8888 25.9487 14.8286 18.8718 14.0359 18.2564C13.8057 18.1026 13.4222 17.9487 13.1409 17.9487C12.8852 17.9487 12.3738 17.718 12.0158 17.4359C11.6578 17.1539 11.0952 16.9231 10.7628 16.9231C10.3537 16.9231 9.94455 16.5641 9.382 15.7692C8.58931 14.6154 8.25689 14.4103 7.97561 14.8718ZM16.7464 22.5385C18.4596 24.5128 19.866 26.2051 19.866 26.3333C19.866 26.4359 18.8432 27.2564 17.6158 28.1538L15.3911 29.7692L14.9308 29.1282L14.4706 28.4872L12.8085 30.3333C11.8879 31.359 11.0697 32.2051 10.9674 32.2308C10.8651 32.282 10.3537 31.6667 9.79113 30.8718C8.74273 29.359 8.7683 29.3333 10.3025 29.9231C10.5838 30.0256 13.2176 26.8974 13.2176 26.4359C13.2176 26.3077 12.5783 25.1282 11.8112 23.8205C11.0185 22.4872 10.4304 21.2821 10.456 21.1026C10.5583 20.6923 12.7573 19 13.2176 19C13.4477 18.9744 15.0331 20.5898 16.7464 22.5385ZM12.1948 26.3077C12.1948 26.718 11.7856 26.7949 11.5555 26.4103C11.3509 26.0769 11.6578 25.5897 11.9646 25.7692C12.0925 25.8718 12.1948 26.1026 12.1948 26.3077Z" fill="white"/>
<path d="M14.1125 21.0256C14.0102 21.1795 14.6239 22.0513 15.4421 22.9743C17.9737 25.8461 17.9225 25.7692 17.181 26.2564C16.5417 26.6923 16.3116 27.4359 16.823 27.4359C17.2832 27.4359 18.8686 26.1026 18.7919 25.7436C18.6896 25.359 14.7262 20.7692 14.4705 20.7692C14.3682 20.7692 14.1892 20.8974 14.1125 21.0256Z" fill="white"/>
<path d="M14.6238 25.8974C14.4192 26.2307 15.7489 28.2051 16.1836 28.2051C16.695 28.2051 16.6183 27.7948 15.8767 26.6666C15.1863 25.6154 14.9051 25.4359 14.6238 25.8974Z" fill="white"/>
<path d="M33.1119 15.7692C32.575 16.5385 32.1147 16.9231 31.7311 16.9231C31.4243 16.9231 30.8617 17.1795 30.4526 17.4872C30.069 17.8205 29.5065 18.0256 29.1996 18C28.7905 17.9487 27.9978 18.6667 25.9777 20.9487C22.1421 25.2821 21.6562 25.8974 21.6562 26.4103C21.6562 26.9744 26.3868 30.5128 27.154 30.5128C27.4608 30.5128 27.8188 30.3846 27.9722 30.2308C28.1512 30.0513 28.6626 30.4615 29.711 31.641C30.5293 32.5641 31.3731 33.3333 31.6288 33.3333C32.2425 33.3333 34.5183 29.8718 34.3138 29.2308C34.1092 28.6154 33.5466 28.4103 32.8051 28.7179C32.3192 28.8974 32.0891 28.8205 31.6288 28.3333C31.0663 27.7436 31.0663 27.6667 31.4754 27.0769C31.9868 26.2564 31.9868 25.9231 31.4754 25.359C31.0663 24.9231 31.1174 24.7692 32.0124 23.2821C32.6005 22.3077 32.9585 21.359 32.9585 20.8974C32.9329 20.4615 33.0352 19.7692 33.1886 19.3077C33.3676 18.7436 33.3676 18.3333 33.1886 18C32.9841 17.5898 33.0864 17.2564 33.8023 16.2821C34.6206 15.1026 34.7229 14.6154 34.1603 14.6154C34.0325 14.6154 33.5466 15.1282 33.1119 15.7692ZM30.8106 19.9231C31.5266 20.4615 32.1147 21 32.1147 21.1539C32.1147 21.2821 31.4498 22.5641 30.6316 23.9487L29.1229 26.4872L30.2992 28.1026C31.6544 29.8974 31.9613 30.1282 32.7028 29.7179C32.9841 29.5641 33.2654 29.5128 33.3421 29.5641C33.4699 29.7179 32.038 31.9231 31.6544 32.1538C31.5266 32.2308 30.6571 31.4359 29.711 30.359L27.9722 28.4359L27.5887 29.0256C27.3841 29.359 27.1795 29.641 27.1284 29.6923C27.1028 29.7436 26.0288 29 24.7247 28.0513L22.3978 26.3333L23.0115 25.6667C23.3439 25.3077 24.8014 23.641 26.259 21.9744C27.7165 20.3333 29.0206 18.9744 29.174 18.9744C29.353 18.9744 30.069 19.4103 30.8106 19.9231ZM30.6316 26.7436C30.427 26.9487 30.3503 26.8718 30.3503 26.5128C30.3503 25.8205 30.7083 25.4615 30.8106 26.0256C30.8617 26.2564 30.785 26.5897 30.6316 26.7436Z" fill="white"/>
<path d="M25.7729 23.1282C24.6222 24.4359 23.7017 25.641 23.7017 25.8205C23.7017 25.9744 24.1108 26.4359 24.5966 26.8205C25.3126 27.359 25.5939 27.4359 25.824 27.2051C26.0542 26.9744 25.9519 26.7692 25.3638 26.3077L24.6222 25.718L26.5912 23.4872C28.3555 21.4872 28.7647 20.7693 28.0487 20.7693C27.9208 20.7693 26.898 21.8462 25.7729 23.1282Z" fill="white"/>
<path d="M26.6678 26.5897C25.9518 27.641 25.8239 28.2051 26.3353 28.2051C26.6422 28.2051 27.7929 26.6154 27.7929 26.1795C27.7929 25.5128 27.2303 25.7179 26.6678 26.5897Z" fill="white"/>
<path d="M16.1842 19.2821C16.2865 19.4615 17.4628 20.8718 18.7925 22.3846C20.7614 24.6154 21.2984 25.0769 21.5541 24.8205C21.7075 24.641 22.9094 23.282 24.1879 21.7949C26.1824 19.5128 26.4381 19.1026 26.0034 19.0256C25.7221 18.9744 25.1084 19.2564 24.6482 19.641C22.9605 21.0769 21.2473 21.359 19.3039 20.5897C18.6902 20.359 17.9998 19.8974 17.7441 19.5641C17.2582 18.9487 15.8263 18.6923 16.1842 19.2821ZM21.6052 21.7436C21.6564 21.9231 21.5285 22.0513 21.2984 22.0513C21.0683 22.0513 20.8893 21.8718 20.8893 21.641C20.8893 21.2051 21.4518 21.282 21.6052 21.7436ZM21.6052 23.359C21.5541 23.5128 21.4007 23.6154 21.2728 23.6154C21.145 23.6154 20.9915 23.5128 20.9404 23.359C20.8893 23.2051 21.0427 23.0769 21.2728 23.0769C21.503 23.0769 21.6564 23.2051 21.6052 23.359Z" fill="white"/>
<path d="M18.5878 29.5128C16.4399 31.1026 16.0563 31.3077 15.1869 31.2308C14.292 31.1538 14.113 31.2308 13.3203 32.2308L12.4253 33.3333H21.2983H30.197L29.1997 32.3077C28.3814 31.4872 28.0234 31.282 27.2563 31.282C26.5148 31.282 25.8499 30.9231 23.8554 29.4872C22.5002 28.4872 21.3239 27.6923 21.2216 27.6923C21.0938 27.6923 19.9175 28.5128 18.5878 29.5128ZM21.6563 29.5128C21.6563 29.641 21.4773 29.7436 21.2728 29.7436C20.8892 29.7436 20.7614 29.4359 21.0426 29.1538C21.2472 28.9487 21.6563 29.1795 21.6563 29.5128ZM21.6052 31.0769C21.4518 31.5385 20.8892 31.6154 20.8892 31.1795C20.8892 30.9487 21.0682 30.7692 21.2983 30.7692C21.5285 30.7692 21.6563 30.8974 21.6052 31.0769Z" fill="white"/>
<path d="M47.9473 26.6667L54.1597 12.6667H57.3455L63.5778 26.6667H60.1928L55.0955 14.3067H56.3698L51.2526 26.6667H47.9473ZM51.0535 23.6667L51.9097 21.2067H59.0778L59.9539 23.6667H51.0535Z" fill="white"/>
<path d="M65.4261 26.6667V12.6667H71.4593C72.7071 12.6667 73.7823 12.8733 74.685 13.2867C75.5876 13.6867 76.2846 14.2667 76.7757 15.0267C77.2669 15.7867 77.5124 16.6933 77.5124 17.7467C77.5124 18.7867 77.2669 19.6867 76.7757 20.4467C76.2846 21.2067 75.5876 21.7933 74.685 22.2067C73.7823 22.6067 72.7071 22.8067 71.4593 22.8067H67.2182L68.6518 21.3467V26.6667H65.4261ZM68.6518 21.7067L67.2182 20.1667H71.2801C72.2757 20.1667 73.0191 19.9533 73.5102 19.5267C74.0014 19.1 74.2469 18.5067 74.2469 17.7467C74.2469 16.9733 74.0014 16.3733 73.5102 15.9467C73.0191 15.52 72.2757 15.3067 71.2801 15.3067H67.2182L68.6518 13.7667V21.7067Z" fill="white"/>
<path d="M82.6071 18.3067H89.3173V20.8267H82.6071V18.3067ZM82.8461 24.0667H90.4323V26.6667H79.6403V12.6667H90.1735V15.2667H82.8461V24.0667Z" fill="white"/>
<path d="M102.595 12.6667H105.821V26.6667H102.595V12.6667ZM96.2635 26.6667H93.0378V12.6667H96.2635V26.6667ZM102.834 20.9267H96.0245V18.1867H102.834V20.9267Z" fill="white"/>
<path d="M118.455 25.2267V15.3067H113.676L113.616 17.3467C113.577 18.2133 113.517 19.0333 113.437 19.8067C113.371 20.58 113.265 21.2867 113.119 21.9267C112.973 22.5533 112.78 23.0867 112.541 23.5267C112.315 23.9667 112.03 24.28 111.685 24.4667L108.24 24.0267C108.718 24.04 109.11 23.8733 109.415 23.5267C109.734 23.18 109.986 22.6933 110.172 22.0667C110.357 21.4267 110.49 20.68 110.57 19.8267C110.663 18.9733 110.729 18.0467 110.769 17.0467L110.928 12.6667H121.641V25.2267H118.455ZM107.782 29.5667L107.802 24.0267H123.592V29.5667H120.605V26.6667H110.769V29.5667H107.782Z" fill="white"/>
<path d="M124.268 26.6667L130.481 12.6667H133.666L139.899 26.6667H136.514L131.416 14.3067H132.691L127.574 26.6667H124.268ZM127.374 23.6667L128.231 21.2067H135.399L136.275 23.6667H127.374Z" fill="white"/>
</svg>
