<svg width="107" height="75" viewBox="0 0 107 75" fill="none" xmlns="http://www.w3.org/2000/svg">
<g clip-path="url(#clip0_332_5)">
<path fill-rule="evenodd" clip-rule="evenodd" d="M41.5548 73.4072C40.471 73.2099 38.8011 72.6059 37.7311 72.1382C37.4656 72.0237 37.4715 72.0651 37.1961 71.9665C36.9208 71.8678 36.9994 71.8638 36.7044 71.7493C34.4267 70.8671 32.2552 69.4816 30.2136 68.1967C30.0582 68.1 29.9894 68.0132 29.8202 67.8888L27.696 66.3336C27.0941 65.9151 26.6633 65.3309 26.0772 64.8355L24.1535 62.9388C24.1319 62.9171 24.0985 62.8934 24.0768 62.8717C23.8349 62.5954 23.5949 62.3171 23.353 62.0388C22.5662 61.2493 21.0655 59.098 20.6308 59.098C20.4164 59.098 19.1281 61.4901 18.0129 62.4276L16.514 63.4737C15.7804 63.8092 13.3296 64.4862 12.5802 64.4862C11.4592 64.472 10.3456 64.3006 9.27189 63.977C8.25696 63.6868 8.39267 63.9059 7.35021 63.2092C6.98162 62.9733 6.63706 62.7016 6.32152 62.398C1.19181 56.5145 -2.48435 42.4836 2.06315 35.6388C2.54308 34.9145 3.17839 34.5257 3.83337 34.0204C4.89944 33.2112 4.97813 33.2921 6.21138 33.004C6.0678 32.3822 5.66654 31.7783 5.53672 31.2711C4.61883 27.8868 3.70486 24.502 2.79483 21.1165C2.7496 20.85 2.59817 20.5776 2.54703 20.2303C1.99039 15.5033 3.15283 11.5086 7.30891 8.85988C7.7731 8.5658 10.3301 7.90264 10.8769 7.90264C12.4504 7.90264 12.4721 7.84343 13.9276 8.24409C14.3661 8.34492 14.81 8.42004 15.2572 8.46908C15.9303 7.21365 16.8918 6.13722 18.062 5.32896C20.1076 3.97698 23.1917 3.23882 25.5796 3.92567C25.9395 4.03027 26.0339 4.12304 26.3093 4.18619C27.0213 4.34606 27.3301 4.78816 27.9694 4.2079C28.5594 4.08159 28.998 3.92567 29.6688 3.78356C30.192 3.67501 30.3356 3.46777 30.6719 3.0908C32.21 1.37764 34.0746 0.706588 36.0612 0.491457C39.4679 0.120404 41.2578 1.4783 41.962 1.80396C42.5796 1.80396 42.6386 1.51974 43.2346 1.51974C44.3046 1.51974 44.4796 1.60461 45.3844 1.77435C46.1397 1.91646 45.882 1.77435 46.4858 2.08817L47.8961 1.37566C48.9012 0.872374 50.0597 0.684878 51.2045 0.442115C55.7795 -0.532885 59.9238 0.078958 63.8399 2.68225C64.1723 2.9033 64.2864 3.02369 64.5736 3.22303C64.7899 3.37501 65.0279 3.49737 65.2463 3.6829C65.9268 4.26316 67.9154 6.78751 68.1081 7.61843C69.2411 7.61843 70.3727 7.61843 71.503 7.61843C72.6596 7.61843 73.1414 8.0487 74.3275 8.0487C75.4113 3.96712 82.1951 3.16383 85.7749 4.21777C89.7854 1.52369 97.3148 2.86777 99.207 7.90067C100.424 13.8217 100.735 23.2737 97.364 28.3283C98.1645 28.7526 98.3966 28.6283 99.2207 28.875C101.29 29.4928 101.101 29.5678 103.044 30.8487C107.027 33.4816 108.176 40.2987 105.649 44.0112C104.931 45.0651 104.681 45.3533 104.502 45.6197C105.218 50.9487 103.454 54.5013 98.4949 56.8283C98.7231 57.3059 98.5756 57.3276 98.6916 57.9099C98.9273 58.9996 99.0518 60.1106 99.0634 61.2257C99.0634 62.5796 98.3553 66.6434 97.5843 67.9658C96.948 69.0816 96.118 70.0741 95.1335 70.8967L93.5245 71.9743C91.5714 72.6908 88.804 73.3086 86.7682 72.5665C85.9637 72.2763 85.6549 72.4461 84.8446 71.9428C83.9323 71.3719 83.1103 70.6674 82.4056 69.8526L82.1125 69.5941L79.1464 70.873C78.8809 70.9757 78.8042 70.9638 78.4954 71.0704C76.8176 71.6467 75.0828 72.377 73.3814 72.7421C61.2023 75.3553 53.7929 75.9888 41.5548 73.4072Z" fill="#064497"/>
<path fill-rule="evenodd" clip-rule="evenodd" d="M94.5493 29.3132C95.7707 29.9606 98.8155 29.4277 101.937 31.8257C105.711 34.727 106.87 40.3915 103.839 44.0231L103.115 44.858C102.997 45.0119 102.968 45.0731 102.887 45.1955C103.813 49.1823 101.904 53.4849 98.1546 55.3382L97.9579 55.4349C96.6656 56.0014 96.6538 55.2672 97.3973 58.2119C98.546 64.9777 95.8061 70.5316 90.2142 71.3468C88.8865 71.7415 88.2138 71.4001 86.9157 71.1494C85.4837 70.8632 83.9889 69.7284 83.2061 68.4909C82.7379 67.7527 82.6416 67.8316 81.9374 68.1573L77.0575 70.0659C76.79 70.1606 76.6641 70.1586 76.4025 70.2632C65.2423 74.6172 46.5664 75.5428 35.955 69.8172L30.6285 66.6593C29.9873 66.233 29.5428 65.8303 28.939 65.3764C27.2612 64.1191 25.4772 62.5481 24.242 60.8724C23.9942 60.5349 23.8014 60.4343 23.5654 60.1323C23.2487 59.7376 21.8266 57.6455 21.4726 57.5527C21.2995 57.5093 19.9895 57.979 19.2106 57.979C18.7681 59.8876 16.811 61.952 14.9955 62.5422C13.8924 62.9029 12.7393 63.0861 11.579 63.0849C11.1522 63.0849 8.97089 62.5047 8.66405 62.3231C8.22937 62.0665 8.00513 61.8238 7.59404 61.5514C3.07014 58.5593 0.45219 44.4928 1.84673 39.8409C1.97458 39.308 2.1044 38.7751 2.24011 38.2422C2.50302 37.5265 2.90406 36.8699 3.42026 36.3099C5.39897 33.9968 8.04841 34.3599 8.04841 33.7224C8.04841 33.3099 7.56257 32.5738 7.37178 31.9915C6.19163 27.7363 5.01149 23.481 3.83134 19.2257C3.08391 16.2909 5.46977 10.5159 8.91777 9.78362C12.1789 9.12244 11.9055 9.20138 15.1352 10.0106C15.5286 10.2376 15.5836 10.3441 16.097 10.4645C16.6064 9.39875 15.9751 10.1073 17.1139 8.36454C17.763 7.3777 18.6284 6.80336 19.543 6.12441C21.2464 4.86126 24.6747 4.97968 26.6416 5.6981C27.1727 5.89547 27.0724 6.06915 27.5444 6.06915C27.8572 6.06915 28.0303 5.5777 29.352 5.32902C29.529 5.29547 29.7454 5.18691 30.0011 5.13165C31.6907 4.73691 31.1203 4.93428 32.0388 3.77178C33.7933 1.55731 38.39 1.11125 40.6047 2.75138C42.3002 4.00862 41.9698 2.94875 43.9485 2.94875C44.4654 2.97564 44.9744 3.08767 45.4551 3.28033C46.1888 3.52507 46.1573 3.25468 46.9165 3.65731C46.9421 3.6356 46.9795 3.56652 46.9933 3.59217C47.5676 3.27112 48.1433 2.95073 48.7202 2.63099C49.7548 2.23625 52.9786 1.38757 53.9836 1.38757C57.111 1.38757 60.5374 1.90862 63.0551 3.91586C63.2498 4.10036 63.4575 4.27053 63.6766 4.42507C64.8744 5.23033 65.7537 6.45007 66.507 7.68362C66.7253 8.04283 67.097 9.18757 67.4098 9.18757C68.9971 9.18757 70.4054 8.45928 72.8247 9.28428C73.34 9.45994 74.528 9.75599 75.185 9.75599C76.2334 5.23626 81.5185 4.65599 85.3048 5.41389C85.4464 5.45336 86.0915 5.72573 86.2076 5.78296C89.5946 2.82244 97.2341 4.31652 98.192 9.49941C98.8312 12.9553 98.9473 23.6882 96.6932 26.7988L95.22 28.7231C94.8698 29.1178 94.8522 28.9066 94.5473 29.3251L94.5493 29.3132ZM13.2843 50.0172L13.2607 49.8514L13.1427 50.0172H13.2843ZM13.2843 50.0172C13.7348 50.3191 13.9629 50.6724 14.3779 51.0474C15.4223 51.9988 17.6115 53.4257 19.0198 52.652C20.7114 51.7224 21.0654 48.9968 21.2562 47.2363C21.3113 46.7369 21.1992 46.9639 21.1992 46.3303H21.3408C21.3408 47.4139 23.3077 50.6231 23.9765 51.7678L26.5452 55.2889C26.6888 55.4863 26.8245 55.6836 26.9662 55.8593L28.4335 57.5073C28.5607 57.7057 28.7041 57.8932 28.8623 58.0678C30.3866 59.6685 32.0349 61.1922 33.8622 62.4099C36.4683 64.1507 38.9761 65.4889 42.0622 66.5191C44.2361 67.2457 46.4761 67.7554 48.7497 68.0409C49.1923 68.1001 50.0321 68.252 50.4688 68.2994C53.0415 68.5895 55.8798 68.4395 58.5174 68.4534C60.4843 68.4534 63.9067 68.0152 65.8756 67.6126C70.1045 66.7442 72.9014 66.0237 76.9473 64.3974C79.8741 63.2132 82.6081 61.9895 85.2261 60.3672C87.016 59.2599 86.6363 60.4599 86.6363 62.2145C86.6363 63.2665 87.0415 64.8632 87.5215 65.4395C87.844 65.8343 88.1292 66.1441 88.7567 66.1895C91.7071 66.4027 92.0827 63.6652 92.4053 61.6145C92.6531 60.0474 91.8703 56.8777 91.3904 55.4606C90.3892 52.5178 88.2748 49.656 85.8968 47.6409C85.5261 47.341 85.1314 47.0723 84.7166 46.8376C82.376 45.3988 79.5142 46.6402 80.8163 49.0501C82.7832 52.6935 84.1384 51.683 80.0983 54.7994L71.9947 59.0053C71.3869 59.2027 71.0112 59.3843 70.4211 59.5461C69.8822 59.6922 69.5911 59.8659 68.9243 60.0277C68.287 60.1817 67.8091 60.3435 67.2544 60.4817C66.1313 60.7619 65.1833 61.0422 63.952 61.2711C63.3285 61.3915 62.8662 61.433 62.2565 61.5534C60.0496 61.9876 54.857 62.556 52.8389 62.2323L45.3883 61.4823C38.7598 60.1797 31.8402 55.7902 28.4197 49.8632C28.1837 49.4527 27.9949 49.0106 27.7588 48.5389C27.4854 47.9922 27.3654 47.633 27.0999 47.0744C26.6456 46.1053 26.3309 45.1599 25.9198 44.1356C25.8315 43.8834 25.7573 43.6264 25.6975 43.3659C25.6129 43.0836 25.5303 42.9889 25.4182 42.6534C25.2569 42.1066 25.0937 41.5619 24.9324 41.0152C24.36 38.9586 22.8219 33.1895 19.4034 34.8711C18.5163 35.3073 18.0266 36.3474 17.6843 37.2593C17.2418 38.4435 16.1403 42.6909 16.1108 43.9086C15.5207 43.5139 15.1273 42.8389 14.5943 42.3099L12.889 40.9007C11.7403 40.1428 10.1215 38.7909 8.63258 38.9448C5.77859 39.2389 6.59092 45.2882 7.03151 47.4869C7.12789 47.9626 7.1692 48.4738 7.29115 48.9277C8.00908 51.5645 9.96417 60.1777 13.5479 57.2172C14.9483 56.0606 14.5313 53.8461 14.138 52.4113C13.9157 51.5961 13.481 50.8441 13.2863 50.0034L13.2843 50.0172ZM34.2005 44.3448C34.2005 45.5132 35.1702 47.0389 36.3208 47.0389C38.5316 47.0389 38.7244 45.2882 38.7244 43.7784C38.7244 41.8678 36.8853 40.5711 35.3688 41.4099C34.4286 41.927 34.2005 43.2632 34.2005 44.3507V44.3448ZM39.8534 38.2461C39.3066 37.879 39.0155 37.3797 38.3467 37.0619C36.2323 36.0652 33.9448 36.6889 32.1627 37.8988C27.6428 40.9757 27.7864 48.2784 33.2131 51.4363C35.9962 53.0645 41.4092 52.4034 41.4092 49.3106C41.5941 49.5961 41.7803 49.8823 41.9678 50.1691C42.8096 51.2803 45.3666 51.0632 45.3666 47.183C45.3666 44.0428 45.0499 40.3382 43.7203 37.6303C43.4135 37.0066 43.2168 36.6435 42.6326 36.3119C41.7573 35.8126 39.8534 36.0948 39.8534 38.2481V38.2461ZM47.0621 43.7724C47.0621 45.6099 46.832 48.3672 48.4173 49.6461C49.6781 50.6626 51.4601 50.1968 52.5754 48.5961C52.8593 48.2074 53.1112 47.7962 53.3287 47.3665L53.787 46.4073C53.8047 46.3678 53.8597 46.2474 53.8774 46.2099L53.9876 46.0363C54.6131 48.7343 55.9978 51.7086 59.2157 51.7086C60.5453 51.7086 60.8285 51.2942 61.4776 50.858C61.4776 49.8001 61.4933 49.881 60.856 48.9297C59.9355 47.5481 59.6503 47.5126 59.1566 46.6639C58.6629 45.8152 58.6511 45.5784 58.6511 44.6191C58.6511 43.6066 59.192 43.2376 59.7447 42.7363C60.1893 42.3297 61.0842 41.8066 61.6153 41.4948C63.1632 40.5869 64.5873 39.827 64.5873 38.2363C64.5873 35.858 61.7608 35.3014 59.5835 36.7619C57.5693 38.1119 56.1138 39.6948 54.5521 41.4988C54.7035 39.6711 55.1284 37.9126 55.4903 36.0573C55.8011 34.4606 55.9525 32.5047 54.8275 31.2948L54.7586 31.2218C53.1281 29.5737 50.3488 31.1113 49.2375 33.8961C49.0821 34.2909 49.0408 34.3797 48.8992 34.6856C47.9393 36.7895 47.0621 40.9106 47.0621 43.7645V43.7724ZM68.9676 42.7856C68.9691 43.1236 69.1038 43.4473 69.3422 43.6861C69.5805 43.925 69.9033 44.0596 70.2402 44.0606C72.2071 44.0606 72.0792 41.9566 71.2236 41.5165C70.6336 41.2185 68.9715 41.4948 68.9715 42.7856H68.9676ZM62.7502 46.8968C62.7502 47.5659 62.8407 47.8185 62.8938 48.454C63.2871 53.1376 68.4582 56.0507 73.82 53.7514C74.8034 53.327 76.3494 52.5001 76.7467 51.5803C77.1441 50.6606 77.0673 48.533 75.5567 48.2132C74.9765 48.0928 73.9832 48.4659 73.5112 48.608C71.8019 49.1547 69.2017 49.2455 68.409 47.706C67.754 46.4349 73.1158 49.1645 74.8526 44.9902C75.4564 43.5395 75.4427 42.6652 74.89 41.2284C74.4428 40.1451 73.6322 39.2528 72.5985 38.706C70.9384 37.9165 68.5506 38.2757 67.3252 38.9981C65.6101 40.0106 64.1919 41.404 63.4721 43.356C63.1514 44.2303 62.7502 45.7422 62.7502 46.8849V46.8968ZM81.6797 36.9711C83.5306 36.9711 84.5731 33.2823 81.8214 33.2823C79.585 33.2823 78.9123 36.9711 81.6797 36.9711ZM76.1724 35.8441C76.1724 37.4784 76.4281 44.479 77.8344 45.5152C78.5346 46.0303 79.6912 45.9099 80.5527 45.9099C82.0043 45.9099 81.9669 43.879 81.9669 42.3573L82.0967 42.5093C82.915 43.7626 83.1589 46.8514 86.4436 45.2902C89.1068 44.0191 87.2304 42.7244 85.7807 40.658L85.0766 39.6711C85.3579 39.2488 85.6273 39.1935 86.0305 38.7849C89.7165 35.0685 87.8008 28.6086 82.2482 28.6086C77.5079 28.6086 76.1724 31.4191 76.1724 35.8422V35.8441ZM89.3153 39.531C89.3153 45.0849 94.4037 44.5639 94.4037 46.1961C94.4037 46.579 94.3368 46.5909 94.2621 46.9047C92.4918 47.3764 89.7382 45.8191 89.7382 48.1816C89.7382 49.2534 90.4522 49.8672 91.292 50.3093C91.8506 50.6014 93.3317 51.1205 94.2031 50.9665C95.3832 50.7593 95.9241 50.5974 96.7719 49.8514C97.7986 48.9455 98.3454 46.9007 97.5586 45.2941C96.5634 43.2573 95.1059 43.3205 95.1059 42.083C96.4139 41.3902 97.4977 41.929 98.6286 41.5066C100.086 40.9619 101.689 37.8415 98.5834 35.7573C96.3667 34.2711 92.8951 34.3303 90.9695 36.0889C90.043 36.9376 89.3114 38.1435 89.3114 39.531H89.3153ZM41.5547 73.4073C53.787 75.9889 61.1963 75.3553 73.3715 72.7382C75.0768 72.3711 76.8116 71.6409 78.4855 71.0645C78.7943 70.958 78.8788 70.9698 79.1365 70.8672L82.1125 69.5941L82.4134 69.8606C83.1186 70.6748 83.9406 71.3792 84.8524 71.9507C85.6627 72.454 85.9715 72.2823 86.776 72.5724C88.8177 73.3106 91.5792 72.6928 93.5324 71.9803L95.1413 70.9027C96.1262 70.0806 96.9563 69.0879 97.5921 67.9718C98.3631 66.6514 99.0712 62.5856 99.0712 61.2316C99.0596 60.1166 98.9351 59.0056 98.6994 57.9159C98.5873 57.3336 98.7348 57.3119 98.5027 56.8343C103.461 54.5053 105.226 50.9527 104.51 45.6257C104.689 45.3593 104.938 45.0731 105.656 44.0172C108.184 40.3047 107.033 33.4876 103.052 30.8547C101.109 29.5698 101.298 29.4948 99.2285 28.881C98.4044 28.6343 98.1723 28.7586 97.3718 28.3343C100.743 23.2797 100.432 13.8238 99.2148 7.90665C97.3226 2.87376 89.7932 1.52967 85.7827 4.22573C82.2088 3.1698 75.4191 3.9731 74.3353 8.05468C73.1552 8.05468 72.6674 7.62046 71.5108 7.62441C70.3543 7.62836 69.2489 7.62441 68.1159 7.62441C67.9192 6.79546 65.9326 4.26915 65.2541 3.68888C65.0357 3.50533 64.7977 3.38099 64.5814 3.23099C64.2942 3.03362 64.188 2.90928 63.8477 2.68823C59.9316 0.0869141 55.7834 -0.526903 51.2123 0.448097C50.0715 0.69086 48.909 0.878358 47.9039 1.38362L46.4917 2.09415C45.8898 1.77244 46.1455 1.92244 45.3922 1.78033C44.4854 1.6106 44.3123 1.52573 43.2423 1.52573C42.6523 1.52573 42.5874 1.80994 41.9698 1.80994C41.2597 1.47836 39.4698 0.12836 36.069 0.497439C34.0824 0.714544 32.2178 1.38362 30.6797 3.09678C30.3433 3.47375 30.1998 3.68889 29.6766 3.79152C29.0058 3.93165 28.5613 4.08757 27.9771 4.21388C27.3379 4.79415 27.0271 4.35204 26.3171 4.19218C26.0417 4.12902 25.9473 4.03625 25.5873 3.93165C23.1995 3.24481 20.1154 3.98297 18.0698 5.33494C16.8995 6.1432 15.9381 7.21963 15.265 8.47507C14.8178 8.42603 14.3738 8.3509 13.9354 8.25007C12.4798 7.85533 12.4523 7.90862 10.8827 7.90862C10.3379 7.90862 7.77895 8.57178 7.31672 8.86783C3.16064 11.5145 2.00605 15.5093 2.55481 20.2363C2.59612 20.5836 2.75151 20.856 2.80265 21.1224C3.72054 24.5066 4.63451 27.8915 5.54453 31.277C5.67435 31.7843 6.07559 32.3882 6.21917 33.0099C4.98592 33.2981 4.90725 33.2172 3.84118 34.0264C3.17833 34.5316 2.54302 34.9205 2.07096 35.6448C-2.47654 42.4895 1.19962 56.5205 6.32933 62.406C6.6459 62.7084 6.99033 62.98 7.35802 63.2172C8.40048 63.9119 8.26477 63.6928 9.2797 63.983C10.3534 64.3066 11.467 64.478 12.588 64.4922C13.3414 64.4922 15.7921 63.8152 16.5219 63.4797L18.0206 62.4336C19.1359 61.4961 20.4242 59.104 20.6386 59.104C21.0733 59.104 22.5681 61.2593 23.3608 62.0468L24.0846 62.8777C24.1063 62.8994 24.1397 62.9251 24.1613 62.9448L26.085 64.8435C26.6751 65.3389 27.1019 65.9231 27.7018 66.3395L29.828 67.8948C30.0031 68.0192 30.0719 68.106 30.2214 68.2027C32.2611 69.4915 34.4306 70.877 36.7122 71.7553C37.0072 71.8698 36.9089 71.8678 37.2039 71.9724C37.499 72.077 37.4734 72.0297 37.7389 72.1441C38.8168 72.608 40.4769 73.2159 41.5547 73.4073Z" fill="white"/>
<path fill-rule="evenodd" clip-rule="evenodd" d="M20.6326 13.5711C20.6326 15.2132 21.2738 17.027 21.3407 17.8244C19.8419 17.9507 16.8503 19.6007 15.9691 19.6698C15.9219 19.0974 15.5383 18.4027 15.3082 17.9211C14.8145 16.8869 14.4447 15.7501 13.4534 14.9606C11.4865 13.3816 9.4291 14.7632 9.02588 17.2441C8.79772 18.6593 9.35437 20.7316 9.72415 22.1053L10.8 25.8553C11.4275 27.7422 12.9086 32.2678 13.9471 33.3277C15.5344 34.9382 17.5525 35.329 18.9608 33.4619C19.4584 32.8027 19.8301 31.2001 19.7869 30.456L19.1614 27.3869C19.0866 27.1323 19.063 26.9606 18.9765 26.7218C18.7798 26.1672 18.2645 24.983 18.2251 24.4974C19.1732 24.4165 22.2848 22.9698 23.0303 22.7941C23.1699 24.4915 23.8407 26.2836 24.3855 27.6751C24.5055 28.0439 24.687 28.3896 24.9225 28.6974C26.1026 30.2882 28.099 31.3165 29.7827 29.5698C30.9629 28.3441 30.4515 25.9915 30.2056 24.529C29.8811 22.6126 27.389 12.9218 25.7525 11.2698C23.2722 8.75729 20.6326 10.8593 20.6326 13.5711Z" fill="#34BDE7"/>
<path fill-rule="evenodd" clip-rule="evenodd" d="M88.3297 14.848C88.3297 17.6744 85.1511 16.7803 84.7184 15.7776C84.0182 14.1612 85.5367 9.88423 82.1123 9.88423C79.8857 9.88423 79.5671 12.5033 79.5671 14.2796C79.5671 16.0066 79.2937 18.829 80.5879 20.0625C83.1449 22.4921 86.6067 20.0625 87.7652 21.7954C86.7148 23.3744 83.8097 21.9375 82.1123 21.9375C79.5258 21.9375 79.8188 25.1823 81.8251 26.1948C83.3731 26.9842 86.6991 27.0178 88.3533 26.4987C89.4036 26.1711 90.2199 25.954 90.9791 25.3145C92.3835 24.1125 93.1053 22.3402 93.1309 19.8138C93.1309 19.0974 93.2824 18.9513 93.2784 18.1184C93.2784 17.5579 93.2253 16.6638 93.2784 16.1448C93.4613 14.5658 93.8115 10.8276 92.4504 9.72239C91.7069 9.11844 90.7529 9.05725 89.7773 9.5112C87.5469 10.5454 88.3297 12.1303 88.3297 14.848Z" fill="#93C24E"/>
<path fill-rule="evenodd" clip-rule="evenodd" d="M70.3822 22.0796C67.0011 22.0796 69.1293 16.9835 71.9144 18.9809C72.7366 19.573 72.6206 20.623 71.8358 21.4105C71.6512 21.6149 71.4272 21.7796 71.1773 21.8946C70.9275 22.0096 70.657 22.0725 70.3822 22.0796V22.0796ZM53.5632 13.0006C53.5632 12.6237 53.8562 12.0533 54.0391 11.7769C54.3096 11.4064 54.7018 11.1436 55.1465 11.0348C56.3267 10.6894 57.379 11.5796 57.379 12.15C57.379 14.2026 55.6953 14.923 54.2162 14.1908C54.0143 14.0672 53.848 13.893 53.7335 13.6854C53.619 13.4778 53.5603 13.2438 53.5632 13.0065V13.0006ZM47.627 13.7111C47.627 15.3158 47.9299 21.3631 48.3489 22.346C48.9685 23.7967 50.1584 23.4967 51.8677 23.4967C55.3019 23.4967 53.9546 21.4322 53.2799 18.5329C56.3129 18.5329 57.7232 18.6789 59.6704 17.4276C62.3926 15.6829 63.6416 13.3302 61.9992 10.2098C61.2911 8.86181 59.6625 7.50589 58.1421 6.99076C55.1917 5.9901 50.0522 6.45786 48.5672 9.12233C48.3386 9.53491 48.1584 9.97271 48.0302 10.4269C47.7592 11.5004 47.6237 12.6038 47.627 13.7111V13.7111ZM62.6011 21.5131C62.6011 23.6269 62.8863 25.9421 63.024 28.0362C63.1558 30.0315 63.7911 31.5019 66.1042 31.1269C67.5223 30.896 69.1018 31.3855 69.1018 29.7454C69.1018 28.7052 68.6061 26.8697 68.254 26.1927C70.7894 26.1927 72.5104 26.2894 74.6209 25.0638C81.8847 20.846 75.2661 11.6625 66.7867 14.5105C64.7352 15.1993 63.6219 15.9335 63.0201 18.1026C62.9047 18.6239 62.8168 19.151 62.7565 19.6815C62.6573 20.2871 62.6053 20.8995 62.6011 21.5131Z" fill="#EC6602"/>
<path fill-rule="evenodd" clip-rule="evenodd" d="M34.4366 22.0599C34.4366 20.9704 34.6647 19.6362 35.6049 19.1191C37.1234 18.2842 38.9605 19.5809 38.9605 21.4875C38.9605 22.9993 38.7638 24.75 36.5569 24.75C35.4063 24.75 34.4366 23.2224 34.4366 22.0559V22.0599ZM41.7436 16.6717C41.1968 16.3046 40.9058 15.8053 40.237 15.4875C38.1226 14.4908 35.835 15.1145 34.053 16.3243C29.5291 19.3954 29.6845 26.6921 35.1034 29.8559C37.8865 31.4842 43.2995 30.823 43.2995 27.7303C43.4844 28.0171 43.6706 28.3033 43.8581 28.5888C44.6999 29.7 47.2569 29.4829 47.2569 25.6026C47.2569 22.4625 46.9402 18.7579 45.6106 16.05C45.3038 15.4263 45.1071 15.0632 44.5229 14.7316C43.6476 14.2362 41.7515 14.5283 41.7515 16.6717H41.7436Z" fill="#D70F51"/>
<path fill-rule="evenodd" clip-rule="evenodd" d="M33.5989 11.1967C33.326 11.0013 33.067 10.787 32.8239 10.5552C31.213 8.91313 28.8055 11.0783 30.3456 12.7598C34.0375 16.7901 36.2287 13.4131 33.5989 11.1967ZM40.843 11.8697C40.8623 12.2855 40.9987 12.6872 41.2364 13.0283C41.2364 13.0381 41.7065 13.3638 41.7341 13.3796C43.2407 14.2381 44.0511 12.4362 44.3402 11.9802C45.0247 10.8987 46.0455 9.69471 45.1112 8.57366C44.6667 8.04076 44.2615 8.04077 43.6636 8.04077C42.5641 8.04077 42.0586 9.55064 41.319 10.65C41.0712 11.0171 40.8371 11.3171 40.8371 11.8697H40.843ZM35.3357 8.31708C35.3751 8.09351 35.4411 7.87549 35.5324 7.66774C36.1047 6.49734 38.1838 6.22498 38.6696 8.23024L39.1476 10.871C39.1476 13.127 36.5296 13.5454 35.8943 11.0151L35.3357 8.31708Z" fill="#D70F51"/>
</g>
<defs>
<clipPath id="clip0_332_5">
<rect width="107" height="75" fill="white"/>
</clipPath>
</defs>
</svg>
