<svg width="32" height="32" viewBox="0 0 32 32" fill="none" xmlns="http://www.w3.org/2000/svg">
<path d="M26.6663 5.33337H7.99967C6.52901 5.33337 5.33301 6.52937 5.33301 8.00004V14.6667H7.99967V10.6667L16.533 17.0667C16.7639 17.2396 17.0446 17.333 17.333 17.333C17.6214 17.333 17.9021 17.2396 18.133 17.0667L26.6663 10.6667V22.6667H15.9997V25.3334H26.6663C28.137 25.3334 29.333 24.1374 29.333 22.6667V8.00004C29.333 6.52937 28.137 5.33337 26.6663 5.33337ZM17.333 14.3334L8.88767 8.00004H25.7783L17.333 14.3334Z" fill="white"/>
<path d="M2.66699 16H12.0003V18.6667H2.66699V16ZM5.33366 20H13.3337V22.6667H5.33366V20ZM9.33366 24H14.667V26.6667H9.33366V24Z" fill="white"/>
</svg>
