<svg width="1440" height="937" viewBox="0 0 1440 937" fill="none" xmlns="http://www.w3.org/2000/svg">
<g clip-path="url(#clip0_138_291)">
<rect width="1440" height="937" fill="#F0F5FD"/>
<path fill-rule="evenodd" clip-rule="evenodd" d="M1582.28 1053.34C1498.59 1101.1 1395.91 1113.1 1303.59 1078.08C1213.65 1043.96 1157.25 959.104 1108.77 873.712C1057.35 783.165 989.952 681.575 1024.13 585.898C1057.72 491.865 1176.23 479.886 1264.51 437.739C1348.27 397.754 1425.44 330.741 1517.87 350.185C1618.69 371.395 1710.07 444.287 1753.9 540.694C1796.12 633.57 1768.09 736.563 1736.46 831.049C1706.35 921.004 1662.93 1007.32 1582.28 1053.34Z" fill="#A3F91E" fill-opacity="0.05"/>
<path fill-rule="evenodd" clip-rule="evenodd" d="M235.285 620.345C151.594 668.104 48.9113 680.099 -43.4113 645.075C-133.352 610.955 -189.748 526.104 -238.234 440.712C-289.647 350.165 -357.048 248.575 -322.869 152.898C-289.277 58.8652 -170.773 46.8864 -82.4897 4.73941C1.26509 -35.2458 78.4419 -102.259 170.868 -82.8154C271.688 -61.6053 363.075 11.2867 406.9 107.694C449.12 200.57 421.091 303.563 389.46 398.049C359.347 488.004 315.933 574.321 235.285 620.345Z" fill="#FF0640" fill-opacity="0.05"/>
<path opacity="0.02" fill-rule="evenodd" clip-rule="evenodd" d="M965.936 276.336C894.866 234.628 842.224 163.6 828.859 80.2223C815.839 -1.00498 854.728 -78.9731 897.388 -151.306C942.623 -228.006 989.234 -321.266 1074.74 -336.686C1158.78 -351.841 1218.15 -269.075 1287.01 -221.571C1352.34 -176.503 1434.92 -147.829 1459.88 -71.0119C1487.1 12.7823 1471.99 111.6 1419.18 185.171C1368.3 256.046 1279.99 279.143 1196.45 295.946C1116.92 311.942 1034.42 316.527 965.936 276.336Z" fill="url(#paint0_linear_138_291)"/>
<circle cx="243" cy="937" r="114" fill="#FF5602" fill-opacity="0.15"/>
</g>
<defs>
<linearGradient id="paint0_linear_138_291" x1="1244.68" y1="456.395" x2="711.612" y2="44.0523" gradientUnits="userSpaceOnUse">
<stop stop-color="#00448F"/>
<stop offset="0.555208" stop-color="#0089D3"/>
<stop offset="1" stop-color="#005CA9"/>
</linearGradient>
<clipPath id="clip0_138_291">
<rect width="1440" height="937" fill="white"/>
</clipPath>
</defs>
</svg>
