<svg width="14" height="17" viewBox="0 0 14 17" fill="none" xmlns="http://www.w3.org/2000/svg">
<g clip-path="url(#clip0_136_253)">
<path d="M4.5498 6.02087H5.7748V13.4584H4.5498V6.02087ZM8.2248 6.02087H9.4498V13.4584H8.2248V6.02087Z" fill="#FF5602"/>
<path d="M-0.349609 2.30204V3.54163H0.875391V15.9375C0.875391 16.2662 1.00445 16.5815 1.23418 16.814C1.46392 17.0464 1.7755 17.177 2.10039 17.177H11.9004C12.2253 17.177 12.5369 17.0464 12.7666 16.814C12.9963 16.5815 13.1254 16.2662 13.1254 15.9375V3.54163H14.3504V2.30204H-0.349609ZM2.10039 15.9375V3.54163H11.9004V15.9375H2.10039ZM4.55039 -0.177124H9.45039V1.06246H4.55039V-0.177124Z" fill="#FF5602"/>
</g>
<defs>
<clipPath id="clip0_136_253">
<rect width="14" height="17" fill="white"/>
</clipPath>
</defs>
</svg>
