<svg width="29" height="29" viewBox="0 0 29 29" fill="none" xmlns="http://www.w3.org/2000/svg">
<path d="M28.5683 5.96549C27.5593 6.41258 26.4754 6.71466 25.336 6.8512C26.5117 6.1477 27.3913 5.04047 27.8106 3.73612C26.706 4.39223 25.4971 4.85406 24.2364 5.10153C23.3886 4.19633 22.2657 3.59634 21.0419 3.39473C19.8182 3.19312 18.5622 3.40116 17.4688 3.98655C16.3754 4.57194 15.5059 5.50193 14.9952 6.63213C14.4846 7.76234 14.3613 9.02952 14.6446 10.2369C12.4064 10.1246 10.2168 9.54282 8.21802 8.52946C6.21919 7.5161 4.45577 6.09377 3.04221 4.35478C2.55888 5.18853 2.28096 6.1552 2.28096 7.1847C2.28042 8.11149 2.50865 9.02408 2.9454 9.8415C3.38214 10.6589 4.01391 11.3559 4.78463 11.8706C3.89079 11.8422 3.01668 11.6007 2.23504 11.1662V11.2387C2.23495 12.5385 2.68458 13.7984 3.50764 14.8044C4.3307 15.8105 5.47648 16.5009 6.75059 16.7583C5.92141 16.9827 5.05208 17.0158 4.20825 16.855C4.56773 17.9734 5.26796 18.9515 6.21091 19.6522C7.15385 20.3529 8.29232 20.7412 9.46692 20.7627C7.47297 22.328 5.01045 23.1771 2.4755 23.1734C2.02646 23.1735 1.5778 23.1473 1.13184 23.0948C3.70495 24.7492 6.70025 25.6273 9.75934 25.6239C20.1148 25.6239 25.7758 17.0471 25.7758 9.60862C25.7758 9.36695 25.7698 9.12287 25.7589 8.8812C26.86 8.08488 27.8105 7.09878 28.5658 5.96912L28.5683 5.96549Z" fill="black"/>
</svg>
