<svg width="29" height="29" viewBox="0 0 29 29" fill="none" xmlns="http://www.w3.org/2000/svg">
<g clip-path="url(#clip0_136_111)">
<path fill-rule="evenodd" clip-rule="evenodd" d="M28.3354 7.18713C28.536 6.52738 28.3354 6.04163 27.3748 6.04163H24.2029C23.3958 6.04163 23.0236 6.46092 22.8218 6.92371C22.8218 6.92371 21.2087 10.7855 18.9237 13.294C18.1842 14.0215 17.8483 14.2523 17.4447 14.2523C17.2429 14.2523 16.9396 14.0215 16.9396 13.3605V7.18713C16.9396 6.39446 16.7173 6.04163 16.0455 6.04163H11.0575C10.5536 6.04163 10.2503 6.40896 10.2503 6.75817C10.2503 7.50854 11.3934 7.68254 11.5106 9.79471V14.384C11.5106 15.3905 11.3257 15.573 10.9221 15.573C9.84671 15.573 7.23067 11.693 5.67796 7.25358C5.37708 6.38963 5.07258 6.04163 4.26179 6.04163H1.0875C0.18125 6.04163 0 6.46092 0 6.92371C0 7.74779 1.07542 11.8416 5.00854 17.2562C7.63063 20.9537 11.3221 22.9583 14.6849 22.9583C16.7016 22.9583 16.9505 22.5136 16.9505 21.7463V18.9515C16.9505 18.0609 17.1414 17.8833 17.7806 17.8833C18.2519 17.8833 19.0578 18.1153 20.9404 19.8976C23.0913 22.011 23.4453 22.9583 24.656 22.9583H27.8279C28.7342 22.9583 29.1885 22.5136 28.9275 21.634C28.6399 20.7591 27.6128 19.4892 26.251 17.9824C25.5115 17.1245 24.4023 16.2001 24.0652 15.7373C23.5951 15.144 23.7293 14.8794 24.0652 14.3513C24.0652 14.3513 27.9318 9.00325 28.3342 7.18713H28.3354Z" fill="black"/>
</g>
<defs>
<clipPath id="clip0_136_111">
<rect width="29" height="29" fill="white"/>
</clipPath>
</defs>
</svg>
